<svg viewBox="0 0 100 100" xmlns="http://www.w3.org/2000/svg">
  <defs>
    <linearGradient id="houseGradient" x1="0%" y1="0%" x2="100%" y2="100%">
      <stop offset="0%" style="stop-color:#4F46E5;stop-opacity:1" />
      <stop offset="100%" style="stop-color:#7C3AED;stop-opacity:1" />
    </linearGradient>
    <linearGradient id="heartGradient" x1="0%" y1="0%" x2="100%" y2="100%">
      <stop offset="0%" style="stop-color:#EF4444;stop-opacity:1" />
      <stop offset="100%" style="stop-color:#F97316;stop-opacity:1" />
    </linearGradient>
  </defs>
  
  <!-- Background circle -->
  <circle cx="50" cy="50" r="48" fill="url(#houseGradient)" stroke="#ffffff" stroke-width="2"/>
  
  <!-- House structure -->
  <path d="M25 45 L50 25 L75 45 L75 70 L25 70 Z" fill="#ffffff" opacity="0.9"/>
  
  <!-- Roof -->
  <path d="M22 45 L50 20 L78 45 L75 42 L50 25 L25 42 Z" fill="#ffffff"/>
  
  <!-- Door -->
  <rect x="42" y="55" width="16" height="15" fill="url(#houseGradient)" rx="2"/>
  <circle cx="54" cy="62" r="1.5" fill="#ffffff"/>
  
  <!-- Windows -->
  <rect x="30" y="50" width="8" height="8" fill="url(#houseGradient)" rx="1"/>
  <rect x="62" y="50" width="8" height="8" fill="url(#houseGradient)" rx="1"/>
  
  <!-- Window crosses -->
  <line x1="34" y1="50" x2="34" y2="58" stroke="#ffffff" stroke-width="1"/>
  <line x1="30" y1="54" x2="38" y2="54" stroke="#ffffff" stroke-width="1"/>
  <line x1="66" y1="50" x2="66" y2="58" stroke="#ffffff" stroke-width="1"/>
  <line x1="62" y1="54" x2="70" y2="54" stroke="#ffffff" stroke-width="1"/>
  
  <!-- Heart symbol (buddy element) -->
  <path d="M50 38 C48 35, 44 35, 44 39 C44 35, 40 35, 40 39 C40 43, 50 48, 50 48 C50 48, 60 43, 60 39 C60 35, 56 35, 56 39 C56 35, 52 35, 50 38 Z" fill="url(#heartGradient)"/>
  
  <!-- Chimney -->
  <rect x="65" y="30" width="6" height="12" fill="#ffffff"/>
  <rect x="64" y="29" width="8" height="3" fill="#ffffff" rx="1"/>
</svg>